<svg xmlns="http://www.w3.org/2000/svg" width="600" height="900" viewBox="0 0 600 900">
  <rect width="600" height="900" fill="#f0eeeb"/>
  <g transform="translate(300,400)" opacity="0.18">
    <!-- Simplified gown silhouette -->
    <ellipse cx="0" cy="-120" rx="28" ry="32" fill="#1c1c1c"/>
    <path d="M-22,-88 C-22,-88 -30,-50 -34,-20 C-38,10 -50,60 -70,180 C-90,300 -120,380 -120,380 L120,380 C120,380 90,300 70,180 C50,60 38,10 34,-20 C30,-50 22,-88 22,-88 Z" fill="#1c1c1c"/>
    <line x1="-16" y1="-86" x2="-30" y2="-60" stroke="#1c1c1c" stroke-width="5" stroke-linecap="round"/>
    <line x1="16" y1="-86" x2="30" y2="-60" stroke="#1c1c1c" stroke-width="5" stroke-linecap="round"/>
  </g>
  <text x="300" y="520" text-anchor="middle" font-family="system-ui,sans-serif" font-size="14" letter-spacing="3" fill="#1c1c1c" opacity="0.22" text-transform="uppercase">IMAGE COMING SOON</text>
</svg>
